<svg width="26" height="21" viewBox="0 0 26 21" fill="none" xmlns="http://www.w3.org/2000/svg">
<path d="M22.5339 0H0V17.3338H22.5339V0ZM20.8005 15.6004H1.73338V1.73338H20.8005V15.6004Z" fill="#2A4378"/>
<path d="M24.2659 4.33344V19.0672H4.33203V20.8005H25.9993V4.33344H24.2659Z" fill="#2A4378"/>
<path d="M11.2673 12.9169C13.4178 12.9169 15.1674 11.0136 15.1674 8.67417C15.1674 6.3347 13.4178 4.4314 11.2673 4.4314C9.11682 4.4314 7.36719 6.33465 7.36719 8.67417C7.36719 11.0137 9.11682 12.9169 11.2673 12.9169ZM11.2673 6.16478C12.462 6.16478 13.434 7.2905 13.434 8.67417C13.434 10.0578 12.462 11.1836 11.2673 11.1836C10.0726 11.1836 9.10057 10.0578 9.10057 8.67417C9.10057 7.2905 10.0726 6.16478 11.2673 6.16478Z" fill="#2A4378"/>
<path d="M5.1992 3.90009H3.46582V13.4337H5.1992V3.90009Z" fill="#2A4378"/>
<path d="M19.0664 3.90009H17.333V13.4337H19.0664V3.90009Z" fill="#2A4378"/>
</svg>
