<svg width="58" height="55" viewBox="0 0 58 55" fill="none" xmlns="http://www.w3.org/2000/svg">
<path d="M9 29.7459C9 30.2905 9.3398 30.7773 9.85102 30.9649L12.1801 31.8199C12.3553 31.4014 12.6122 31.0092 12.9524 30.669C13.632 29.9894 14.5357 29.6151 15.4968 29.6151C16.4579 29.6151 17.3616 29.9894 18.0412 30.669L25.1694 37.7972C26.1723 38.8001 26.4578 40.2526 26.0268 41.512C27.0632 42.271 28.4534 42.4018 29.6273 41.8116L39.4305 36.8828C41.0322 36.0776 41.6944 34.2424 41.1522 32.6642C41.1477 32.6642 41.1431 32.6643 41.1388 32.6643C39.8338 32.6643 38.6043 32.0909 37.7656 31.0909L31.017 23.0449L30.064 23.9979C29.396 24.6659 28.5078 25.0339 27.563 25.0339C26.6182 25.0339 25.73 24.666 25.062 23.9979L24.737 23.6728C24.0689 23.0048 23.701 22.1166 23.701 21.1718C23.701 20.227 24.0689 19.3388 24.737 18.6707L27.4429 15.9648L26.878 15.2915C25.8454 14.0484 24.0903 13.6847 22.6488 14.4154L15.2906 18.1449L10.7833 16.3315C9.93 15.9882 9.00008 16.6164 9.00008 17.5362V29.7459H9Z" fill="#2A4378"/>
<path d="M48.1622 29.2171V19.2233C48.1622 18.5061 47.5807 17.9247 46.8636 17.9247H41.1129L35.1978 13.6551C34.5889 13.2156 33.8788 13 33.1722 13C32.2798 13 31.393 13.3438 30.7225 14.0143L28.049 16.6877L25.4013 19.3354C24.3871 20.3496 24.3871 21.994 25.4013 23.0082L25.7263 23.3333C26.2334 23.8404 26.8981 24.0939 27.5628 24.0939C28.2274 24.0939 28.8921 23.8404 29.3992 23.3333L31.0776 21.6549L38.4854 30.4869C39.0378 31.1455 39.8035 31.5627 40.6256 31.6859C40.7947 31.7113 40.9661 31.7245 41.1385 31.7245C41.3859 31.7245 41.6356 31.6979 41.8831 31.6434L47.1428 30.4852C47.7381 30.3542 48.1622 29.8267 48.1622 29.2171Z" fill="#2A4378"/>
<path d="M20.745 42.2214C21.2641 42.7405 21.9445 43 22.6248 43C23.3052 43 23.9856 42.7405 24.5047 42.2214C24.9097 41.8163 25.156 41.313 25.245 40.7881C25.384 39.9678 25.1377 39.0949 24.5047 38.4617L17.3765 31.3336C16.8574 30.8145 16.1771 30.555 15.4967 30.555C14.8164 30.555 14.136 30.8145 13.6169 31.3336C13.3762 31.5744 13.192 31.8501 13.0629 32.1441C12.6354 33.1181 12.8196 34.2958 13.6169 35.0932L20.745 42.2214Z" fill="#2A4378"/>
</svg>
