<svg width="58" height="55" viewBox="0 0 58 55" fill="none" xmlns="http://www.w3.org/2000/svg">
<path d="M12.5273 44.4667L12.5335 44.473C12.6991 44.6398 12.896 44.7722 13.113 44.8627C13.33 44.9531 13.5627 44.9998 13.7977 45C13.9955 44.9998 14.1919 44.9672 14.3791 44.9035L24.5725 41.4456L44.1329 21.8852C45.3287 20.6893 46.0004 19.0674 46.0004 17.3762C46.0003 15.6851 45.3284 14.0632 44.1325 12.8674C42.9366 11.6717 41.3147 10.9999 39.6235 11C37.9324 11.0001 36.3105 11.672 35.1147 12.8678L15.5543 32.4282L12.0968 42.6213C11.9879 42.9383 11.9705 43.2795 12.0466 43.6059C12.1228 43.9323 12.2893 44.2307 12.5273 44.4667ZM36.7391 14.492C37.5051 13.7318 38.5412 13.3061 39.6205 13.3082C40.6997 13.3103 41.7342 13.7399 42.4973 14.5031C43.2604 15.2662 43.6901 16.3007 43.6921 17.3799C43.6941 18.4592 43.2684 19.4953 42.5082 20.2613L39.936 22.8335L34.1667 17.0642L36.7391 14.492ZM17.5578 33.6733L32.5425 18.6884L38.3118 24.4577L23.327 39.4425L14.5959 42.4043L17.5578 33.6733Z" fill="#2A4378"/>
</svg>
