<svg width="27" height="21" viewBox="0 0 27 21" fill="none" xmlns="http://www.w3.org/2000/svg">
<path d="M4.05 0V17.775C4.05 18.0734 3.93147 18.3595 3.72049 18.5705C3.50952 18.7815 3.22337 18.9 2.925 18.9C2.62663 18.9 2.34048 18.7815 2.1295 18.5705C1.91853 18.3595 1.8 18.0734 1.8 17.775V4.5H0V17.775C0.000878387 18.5505 0.309329 19.294 0.857683 19.8423C1.40604 20.3907 2.14951 20.6991 2.925 20.7H24.075C24.8505 20.6991 25.594 20.3907 26.1423 19.8423C26.6907 19.294 26.9991 18.5505 27 17.775V0H4.05ZM25.2 17.775C25.1997 18.0733 25.081 18.3592 24.8701 18.5701C24.6592 18.781 24.3733 18.8997 24.075 18.9H5.625C5.77393 18.5437 5.85042 18.1612 5.85 17.775V1.8H25.2V17.775Z" fill="#2A4378"/>
<path d="M15.7504 3.60001H7.65039V12.6H15.7504V3.60001ZM13.9504 10.8H9.45039V5.40001H13.9504V10.8Z" fill="#2A4378"/>
<path d="M23.3998 3.60001H17.5498V5.40001H23.3998V3.60001Z" fill="#2A4378"/>
<path d="M23.3998 7.20001H17.5498V9.00001H23.3998V7.20001Z" fill="#2A4378"/>
<path d="M23.3998 10.8H17.5498V12.6H23.3998V10.8Z" fill="#2A4378"/>
</svg>
