<svg width="58" height="55" viewBox="0 0 58 55" fill="none" xmlns="http://www.w3.org/2000/svg">
<path d="M8.1 13H16.9C17.5075 13 18 12.5523 18 12C18 11.4477 17.5075 11 16.9 11H8.1C7.49248 11 7 11.4477 7 12C7 12.5523 7.49248 13 8.1 13Z" fill="#2A4378"/>
<path d="M11 7.02766V15.249C11 15.8166 11.4544 16.2766 12.015 16.2766C12.5756 16.2766 13.03 15.8166 13.03 15.249V7.02766C13.03 6.46009 12.5756 6 12.015 6C11.4544 6 11 6.46009 11 7.02766ZM45.4379 22H49.985C50.5456 22 51 21.5399 51 20.9723C51 20.4048 50.5456 19.9447 49.985 19.9447H45.4379C44.8773 19.9447 44.4229 20.4048 44.4229 20.9723C44.4229 21.5399 44.8773 22 45.4379 22Z" fill="#2A4378"/>
<path d="M47.0346 19.016V23.5676C47.0346 24.1288 47.4746 24.5836 48.0173 24.5836C48.56 24.5836 49 24.1288 49 23.5676V19.016C49 18.4549 48.56 18 48.0173 18C47.4746 18 47.0346 18.4549 47.0346 19.016ZM14.9308 26.8094H44.4115C46.5824 26.8094 48.3423 28.6289 48.3423 30.8734V37.4773C48.3423 39.7218 46.5824 41.5413 44.4115 41.5413H14.9308C12.7599 41.5413 11 39.7218 11 37.4773V30.8734C11 28.6289 12.7599 26.8094 14.9308 26.8094ZM14.9308 28.8414C13.8453 28.8414 12.9654 29.7511 12.9654 30.8734V37.4773C12.9654 38.5996 13.8453 39.5093 14.9308 39.5093H44.4115C45.497 39.5093 46.3769 38.5996 46.3769 37.4773V30.8734C46.3769 29.7511 45.497 28.8414 44.4115 28.8414H14.9308ZM18.977 43.4453V46.1839C18.977 47.1711 18.2132 47.968 17.276 47.968H17.0151C16.0778 47.968 15.3141 47.1711 15.3141 46.1839V43.4336C15.3141 42.8725 14.8741 42.4176 14.3314 42.4176C13.7886 42.4176 13.3487 42.8725 13.3487 43.4336V46.1839C13.3487 48.2893 14.9884 50 17.0151 50H17.276C19.3027 50 20.9424 48.2893 20.9424 46.1839V43.4453C20.9424 42.8842 20.5025 42.4293 19.9597 42.4293C19.417 42.4293 18.977 42.8842 18.977 43.4453ZM44.0882 43.4453V46.1839C44.0882 47.1711 43.3244 47.968 42.3872 47.968H42.1263C41.189 47.968 40.4252 47.1711 40.4252 46.1839V43.4336C40.4252 42.8725 39.9853 42.4176 39.4426 42.4176C38.8998 42.4176 38.4599 42.8725 38.4599 43.4336V46.1839C38.4599 48.2893 40.0996 50 42.1263 50H42.3872C44.4139 50 46.0536 48.2893 46.0536 46.1839V43.4453C46.0536 42.8842 45.6136 42.4293 45.0709 42.4293C44.5282 42.4293 44.0882 42.8842 44.0882 43.4453Z" fill="#2A4378"/>
<path d="M20.844 33.5953C20.844 34.9232 19.7595 36 18.422 36C17.0846 36 16 34.9232 16 33.5953C16 32.2674 17.0846 31.1906 18.422 31.1906C19.7595 31.1906 20.844 32.2674 20.844 33.5953ZM42 33.5953C42 34.9232 40.9154 36 39.578 36C38.2405 36 37.156 34.9232 37.156 33.5953C37.156 32.2674 38.2405 31.1906 39.578 31.1906C40.9154 31.1906 42 32.2674 42 33.5953ZM24.7221 34.5572H33.2587C33.7938 34.5572 34.2275 34.1265 34.2275 33.5953C34.2275 33.0641 33.7938 32.6334 33.2587 32.6334H24.7221C24.187 32.6334 23.7533 33.0641 23.7533 33.5953C23.7533 34.1265 24.187 34.5572 24.7221 34.5572ZM41.0692 27.5044H16.9533V19.8094C16.9533 17.1531 19.1219 15 21.7973 15H36.2252C38.9005 15 41.0692 17.1531 41.0692 19.8094V27.5044ZM21.7085 17.1631C20.1034 17.1631 18.8021 18.455 18.8021 20.0487V26.5904H39.147V20.0487C39.147 18.455 37.8457 17.1631 36.2405 17.1631H21.7085Z" fill="#2A4378"/>
</svg>
