<svg width="23" height="23" viewBox="0 0 23 23" fill="none" xmlns="http://www.w3.org/2000/svg">
<path d="M5.74961 19.1667H9.96628C10.2712 19.1663 10.5635 19.0451 10.7791 18.8295C10.9946 18.6139 11.1159 18.3216 11.1163 18.0167V8.05002C11.1159 7.74513 10.9946 7.45283 10.7791 7.23724C10.5635 7.02165 10.2712 6.90038 9.96628 6.90002H5.74961C5.44472 6.90038 5.15242 7.02165 4.93683 7.23724C4.72124 7.45283 4.59996 7.74513 4.59961 8.05002V18.0167C4.59996 18.3216 4.72124 18.6139 4.93683 18.8295C5.15242 19.0451 5.44472 19.1663 5.74961 19.1667ZM6.13294 8.43336H9.58294V17.6334H6.13294V8.43336Z" fill="#2A4378"/>
<path d="M19.5503 0H15.3336C15.0287 0.000355084 14.7364 0.12163 14.5208 0.337219C14.3052 0.552809 14.1839 0.84511 14.1836 1.15V18.0167C14.1839 18.3216 14.3052 18.6139 14.5208 18.8294C14.7364 19.045 15.0287 19.1663 15.3336 19.1667H19.5503C19.8552 19.1663 20.1475 19.045 20.363 18.8294C20.5786 18.6139 20.6999 18.3216 20.7003 18.0167V1.15C20.6999 0.84511 20.5786 0.552809 20.363 0.337219C20.1475 0.12163 19.8552 0.000355084 19.5503 0ZM19.1669 17.6333H15.7169V1.53333H19.1669V17.6333Z" fill="#2A4378"/>
<path d="M1.53333 0H0V23H23V21.4667H1.53333V0Z" fill="#2A4378"/>
</svg>
