<svg width="58" height="55" viewBox="0 0 58 55" fill="none" xmlns="http://www.w3.org/2000/svg">
<path d="M41.0909 31.4286C44.9066 31.4286 48 34.8571 48 37.4286C48 38.8487 46.84 40 45.4091 40H44.5455M37.6364 26.2857C40.4983 26.2857 42.8182 23.9832 42.8182 21.1429C42.8182 18.3025 40.4983 16 37.6364 16M16.9091 31.4286C13.0933 31.4286 10 34.8571 10 37.4286C10 38.8487 11.16 40 12.5909 40H13.4545M20.3636 26.2857C17.5018 26.2857 15.1818 23.9832 15.1818 21.1429C15.1818 18.3025 17.5018 16 20.3636 16M36.7727 40H21.2273C19.7963 40 18.6364 38.8487 18.6364 37.4286C18.6364 33.1429 23.8182 31.4286 29 31.4286C34.1818 31.4286 39.3636 33.1429 39.3636 37.4286C39.3636 38.8487 38.2036 40 36.7727 40ZM34.1818 21.1429C34.1818 23.9832 31.8619 26.2857 29 26.2857C26.1381 26.2857 23.8182 23.9832 23.8182 21.1429C23.8182 18.3025 26.1381 16 29 16C31.8619 16 34.1818 18.3025 34.1818 21.1429Z" stroke="#2A4378" stroke-width="3" stroke-linecap="round" stroke-linejoin="round"/>
</svg>
