<svg width="58" height="55" viewBox="0 0 58 55" fill="none" xmlns="http://www.w3.org/2000/svg">
<path d="M42.5 13H10V38H42.5V13ZM40 35.5H12.5V15.5H40V35.5Z" fill="#2A4378"/>
<path d="M44.998 19.25V40.5H16.248V43H47.498V19.25H44.998Z" fill="#2A4378"/>
<path d="M26.251 31.6297C29.3525 31.6297 31.876 28.8846 31.876 25.5105C31.876 22.1363 29.3525 19.3912 26.251 19.3912C23.1494 19.3912 20.626 22.1362 20.626 25.5105C20.626 28.8847 23.1494 31.6297 26.251 31.6297ZM26.251 21.8912C27.9741 21.8912 29.376 23.5148 29.376 25.5105C29.376 27.5061 27.9741 29.1297 26.251 29.1297C24.5279 29.1297 23.126 27.5061 23.126 25.5105C23.126 23.5148 24.5279 21.8912 26.251 21.8912Z" fill="#2A4378"/>
<path d="M17.499 18.625H14.999V32.375H17.499V18.625Z" fill="#2A4378"/>
<path d="M37.499 18.625H34.999V32.375H37.499V18.625Z" fill="#2A4378"/>
</svg>
