<svg width="23" height="23" viewBox="0 0 23 23" fill="none" xmlns="http://www.w3.org/2000/svg">
<path d="M0.35667 22.6391L0.360895 22.6433C0.472917 22.7561 0.60614 22.8457 0.752905 22.9069C0.89967 22.9681 1.05708 22.9997 1.21609 22.9998C1.34988 22.9997 1.48276 22.9776 1.6094 22.9345L8.50486 20.5954L21.7368 7.36346C22.5457 6.55449 23.0001 5.45732 23 4.31331C23 3.1693 22.5455 2.07216 21.7365 1.26326C20.9275 0.454358 19.8304 -5.00805e-05 18.6863 4.13978e-09C17.5423 5.00888e-05 16.4452 0.454554 15.6363 1.26353L2.40439 14.4954L0.0654709 21.3907C-0.00820498 21.6051 -0.019965 21.836 0.0315392 22.0568C0.0830435 22.2776 0.195727 22.4794 0.35667 22.6391ZM16.7351 2.36224C17.2533 1.84798 17.9542 1.56002 18.6843 1.56142C19.4143 1.56283 20.1141 1.85347 20.6303 2.36972C21.1466 2.88596 21.4372 3.58574 21.4386 4.31581C21.44 5.04588 21.152 5.74675 20.6377 6.26495L18.8977 8.00496L14.995 4.10225L16.7351 2.36224ZM3.75963 15.3377L13.8963 5.20096L17.799 9.10367L7.66229 19.2403L1.75605 21.2439L3.75963 15.3377Z" fill="#2A4378"/>
</svg>
