<?xml version="1.0" encoding="utf-8" standalone="no"?>
<!DOCTYPE svg PUBLIC "-//W3C//DTD SVG 1.1//EN" "http://www.w3.org/Graphics/SVG/1.1/DTD/svg11.dtd">
<svg width="170" height="170" viewBox="0 0 170 170" fill="none" xmlns="http://www.w3.org/2000/svg">
<path d="M84.5301 28.0469L99.1966 42.4021L44.4384 102.116L38.5276 96.3314C37.6109 95.4323 36.8791 94.228 36.3322 92.7186C35.7845 91.1987 35.4145 89.6205 35.2298 88.0156C35.0374 86.4793 35.0797 84.9227 35.3553 83.3992C35.6284 81.9463 36.147 80.8045 36.9109 79.9737L84.5301 28.0469ZM74.2867 112.523C73.1513 113.771 71.813 114.818 70.3284 115.619C68.8296 116.415 67.1608 116.838 65.4638 116.851C63.6917 116.882 61.8097 116.456 59.818 115.574C57.8263 114.691 55.748 113.191 53.583 111.073L50.3358 107.894L95.9308 58.1713C97.0787 56.9141 98.4269 55.8559 99.9208 55.0397C101.426 54.2235 103.107 53.7884 104.819 53.7724C106.591 53.7416 108.457 54.1507 110.417 54.9998C112.377 55.8488 114.438 57.3335 116.602 59.4541L131.952 74.4815C132.871 75.3808 133.614 76.5727 134.181 78.0571C134.749 79.5414 135.115 81.0951 135.269 82.6766C135.428 84.1999 135.369 85.7381 135.094 87.2446C134.821 88.6949 134.28 89.8609 133.472 90.7427L85.8573 142.668L71.0963 128.218L112.723 82.8284L106.817 77.0481L74.2867 112.523Z" fill="url(#paint0_linear_501_29)"/>
<defs>
<linearGradient id="paint0_linear_501_29" x1="56.8901" y1="115.386" x2="113.539" y2="55.8256" gradientUnits="userSpaceOnUse">
<stop stop-color="#25B6BC"/>
<stop offset="0.29" stop-color="#1E848F"/>
<stop offset="0.62" stop-color="#175263"/>
<stop offset="0.86" stop-color="#133347"/>
<stop offset="1" stop-color="#11273D"/>
</linearGradient>
</defs>
</svg>
