<?xml version="1.0" encoding="UTF-8" standalone="no"?>
<!DOCTYPE svg PUBLIC "-//W3C//DTD SVG 1.1//EN" "http://www.w3.org/Graphics/SVG/1.1/DTD/svg11.dtd">
<svg width="166" height="260" viewBox="0 0 166 260" fill="none" xmlns="http://www.w3.org/2000/svg">
  <path d="M62.3502 25.9518L80.6339 35.2731L46.2029 108.613L38.8346 104.857C37.6912 104.273 36.6332 103.342 35.6607 102.064C34.6841 100.777 33.8598 99.3817 33.2043 97.9051C32.562 96.4963 32.1376 94.9981 31.9457 93.4618C31.7725 91.9937 31.9265 90.7491 32.4076 89.7281L62.3502 25.9518ZM77.797 109.633C77.086 111.163 76.1213 112.562 74.9437 113.77C73.751 114.977 72.2845 115.879 70.6689 116.398C68.9868 116.957 67.0635 117.112 64.8992 116.865C62.7348 116.617 60.3034 115.806 57.6048 114.431L53.5565 112.366L82.2254 51.298C82.9456 49.7555 83.9164 48.343 85.0984 47.1179C86.2908 45.8897 87.766 44.9723 89.3948 44.446C91.077 43.8875 92.9799 43.7208 95.1038 43.9459C97.2276 44.171 99.6385 44.9726 102.336 46.3504L121.473 56.109C122.619 56.6928 123.684 57.6085 124.668 58.856C125.653 60.1031 126.466 61.4766 127.086 62.9399C127.693 64.3462 128.096 65.8318 128.282 67.352C128.455 68.8176 128.287 70.0917 127.78 71.1745L97.8404 134.948L79.4384 125.565L105.613 69.8167L98.2517 66.0632L77.797 109.633Z" fill="url(#paint0_linear_501_29)"/>
  <path d="M28.7527 150.42C28.7527 150.973 28.6827 151.477 28.5427 151.93C28.4027 152.377 28.1927 152.763 27.9127 153.09C27.6394 153.417 27.2961 153.667 26.8827 153.84C26.4761 154.013 26.0027 154.1 25.4627 154.1C24.9027 154.1 24.4161 154.013 24.0027 153.84C23.5894 153.66 23.2461 153.41 22.9727 153.09C22.6994 152.763 22.4961 152.373 22.3627 151.92C22.2294 151.467 22.1627 150.963 22.1627 150.41C22.1627 149.677 22.2827 149.037 22.5227 148.49C22.7627 147.943 23.1261 147.517 23.6127 147.21C24.1061 146.903 24.7261 146.75 25.4727 146.75C26.1861 146.75 26.7861 146.903 27.2727 147.21C27.7594 147.51 28.1261 147.937 28.3727 148.49C28.6261 149.037 28.7527 149.68 28.7527 150.42ZM23.1127 150.42C23.1127 151.02 23.1961 151.537 23.3627 151.97C23.5294 152.403 23.7861 152.737 24.1327 152.97C24.4861 153.203 24.9294 153.32 25.4627 153.32C26.0027 153.32 26.4427 153.203 26.7827 152.97C27.1294 152.737 27.3861 152.403 27.5527 151.97C27.7194 151.537 27.8027 151.02 27.8027 150.42C27.8027 149.52 27.6161 148.817 27.2427 148.31C26.8694 147.797 26.2794 147.54 25.4727 147.54C24.9327 147.54 24.4861 147.657 24.1327 147.89C23.7861 148.117 23.5294 148.447 23.3627 148.88C23.1961 149.307 23.1127 149.82 23.1127 150.42ZM34.1976 154H33.3076V149.37H31.7276C31.6609 150.217 31.5776 150.94 31.4776 151.54C31.3776 152.133 31.2509 152.617 31.0976 152.99C30.9442 153.363 30.7609 153.637 30.5476 153.81C30.3342 153.983 30.0842 154.07 29.7976 154.07C29.7109 154.07 29.6242 154.063 29.5376 154.05C29.4576 154.043 29.3909 154.027 29.3376 154V153.34C29.3776 153.353 29.4209 153.363 29.4676 153.37C29.5142 153.377 29.5609 153.38 29.6076 153.38C29.7542 153.38 29.8876 153.32 30.0076 153.2C30.1276 153.08 30.2342 152.897 30.3276 152.65C30.4276 152.403 30.5176 152.093 30.5976 151.72C30.6776 151.34 30.7476 150.893 30.8076 150.38C30.8676 149.867 30.9209 149.287 30.9676 148.64H34.1976V154ZM37.9688 148.54C38.4288 148.54 38.8222 148.64 39.1488 148.84C39.4822 149.04 39.7355 149.323 39.9088 149.69C40.0888 150.05 40.1788 150.473 40.1788 150.96V151.49H36.5088C36.5222 152.097 36.6755 152.56 36.9688 152.88C37.2688 153.193 37.6855 153.35 38.2188 153.35C38.5588 153.35 38.8588 153.32 39.1188 153.26C39.3855 153.193 39.6588 153.1 39.9388 152.98V153.75C39.6655 153.87 39.3955 153.957 39.1288 154.01C38.8622 154.07 38.5455 154.1 38.1788 154.1C37.6722 154.1 37.2222 153.997 36.8288 153.79C36.4422 153.583 36.1388 153.277 35.9188 152.87C35.7055 152.457 35.5988 151.953 35.5988 151.36C35.5988 150.773 35.6955 150.27 35.8888 149.85C36.0888 149.43 36.3655 149.107 36.7188 148.88C37.0788 148.653 37.4955 148.54 37.9688 148.54ZM37.9588 149.26C37.5388 149.26 37.2055 149.397 36.9588 149.67C36.7188 149.937 36.5755 150.31 36.5288 150.79H39.2588C39.2588 150.483 39.2122 150.217 39.1188 149.99C39.0255 149.763 38.8822 149.587 38.6888 149.46C38.5022 149.327 38.2588 149.26 37.9588 149.26ZM44.8134 148.64V149.38H42.4234V154H41.5434V148.64H44.8134ZM48.9273 148.64V150.87H51.8373V148.64H52.7173V154H51.8373V151.61H48.9273V154H48.0473V148.64H48.9273ZM56.4445 148.55C57.0978 148.55 57.5811 148.693 57.8945 148.98C58.2078 149.267 58.3645 149.723 58.3645 150.35V154H57.7245L57.5545 153.24H57.5145C57.3611 153.433 57.2011 153.597 57.0345 153.73C56.8745 153.857 56.6878 153.95 56.4745 154.01C56.2678 154.07 56.0145 154.1 55.7145 154.1C55.3945 154.1 55.1045 154.043 54.8445 153.93C54.5911 153.817 54.3911 153.643 54.2445 153.41C54.0978 153.17 54.0245 152.87 54.0245 152.51C54.0245 151.977 54.2345 151.567 54.6545 151.28C55.0745 150.987 55.7211 150.827 56.5945 150.8L57.5045 150.77V150.45C57.5045 150.003 57.4078 149.693 57.2145 149.52C57.0211 149.347 56.7478 149.26 56.3945 149.26C56.1145 149.26 55.8478 149.303 55.5945 149.39C55.3411 149.47 55.1045 149.563 54.8845 149.67L54.6145 149.01C54.8478 148.883 55.1245 148.777 55.4445 148.69C55.7645 148.597 56.0978 148.55 56.4445 148.55ZM56.7045 151.41C56.0378 151.437 55.5745 151.543 55.3145 151.73C55.0611 151.917 54.9345 152.18 54.9345 152.52C54.9345 152.82 55.0245 153.04 55.2045 153.18C55.3911 153.32 55.6278 153.39 55.9145 153.39C56.3678 153.39 56.7445 153.267 57.0445 153.02C57.3445 152.767 57.4945 152.38 57.4945 151.86V151.38L56.7045 151.41ZM61.2899 151.26L59.4399 148.64H60.4399L61.8199 150.66L63.1899 148.64H64.1799L62.3299 151.26L64.2799 154H63.2799L61.8199 151.86L60.3399 154H59.3499L61.2899 151.26ZM66.1429 151.91C66.1429 151.97 66.1396 152.057 66.1329 152.17C66.1329 152.277 66.1296 152.393 66.1229 152.52C66.1162 152.64 66.1096 152.757 66.1029 152.87C66.0962 152.977 66.0896 153.063 66.0829 153.13L68.9529 148.64H70.0329V154H69.2129V150.84C69.2129 150.733 69.2129 150.593 69.2129 150.42C69.2196 150.247 69.2262 150.077 69.2329 149.91C69.2396 149.737 69.2462 149.607 69.2529 149.52L66.4029 154H65.3129V148.64H66.1429V151.91ZM75.8187 154H74.9287V149.37H73.3487C73.282 150.217 73.1987 150.94 73.0987 151.54C72.9987 152.133 72.872 152.617 72.7187 152.99C72.5653 153.363 72.382 153.637 72.1687 153.81C71.9553 153.983 71.7053 154.07 71.4187 154.07C71.332 154.07 71.2453 154.063 71.1587 154.05C71.0787 154.043 71.012 154.027 70.9587 154V153.34C70.9987 153.353 71.042 153.363 71.0887 153.37C71.1353 153.377 71.182 153.38 71.2287 153.38C71.3753 153.38 71.5087 153.32 71.6287 153.2C71.7487 153.08 71.8553 152.897 71.9487 152.65C72.0487 152.403 72.1387 152.093 72.2187 151.72C72.2987 151.34 72.3687 150.893 72.4287 150.38C72.4887 149.867 72.542 149.287 72.5887 148.64H75.8187V154ZM77.8499 154H76.8299L78.3599 151.75C78.1533 151.697 77.9533 151.613 77.7599 151.5C77.5666 151.38 77.4099 151.217 77.2899 151.01C77.1699 150.797 77.1099 150.533 77.1099 150.22C77.1099 149.707 77.2833 149.317 77.6299 149.05C77.9766 148.777 78.4366 148.64 79.0099 148.64H81.4099V154H80.5299V151.87H79.2299L77.8499 154ZM77.9599 150.23C77.9599 150.537 78.0733 150.767 78.2999 150.92C78.5333 151.067 78.8566 151.14 79.2699 151.14H80.5299V149.37H79.0999C78.6933 149.37 78.3999 149.45 78.2199 149.61C78.0466 149.77 77.9599 149.977 77.9599 150.23ZM85.3559 154.1C84.8625 154.1 84.4225 154.007 84.0359 153.82C83.6559 153.627 83.3559 153.327 83.1359 152.92C82.9159 152.513 82.8059 151.99 82.8059 151.35C82.8059 150.683 82.9192 150.143 83.1459 149.73C83.3725 149.317 83.6792 149.017 84.0659 148.83C84.4592 148.637 84.8992 148.54 85.3859 148.54C85.6592 148.54 85.9259 148.567 86.1859 148.62C86.4525 148.673 86.6792 148.743 86.8659 148.83L86.6059 149.55C86.4192 149.477 86.2125 149.417 85.9859 149.37C85.7659 149.323 85.5592 149.3 85.3659 149.3C85.0259 149.3 84.7392 149.357 84.5059 149.47C84.2725 149.583 84.0925 149.757 83.9659 149.99C83.8392 150.223 83.7559 150.52 83.7159 150.88H86.3459V151.6H83.7059C83.7259 151.993 83.7992 152.32 83.9259 152.58C84.0525 152.84 84.2325 153.033 84.4659 153.16C84.6992 153.287 84.9892 153.35 85.3359 153.35C85.6359 153.35 85.9025 153.32 86.1359 153.26C86.3692 153.2 86.5859 153.13 86.7859 153.05V153.81C86.5992 153.903 86.3925 153.973 86.1659 154.02C85.9392 154.073 85.6692 154.1 85.3559 154.1ZM94.3148 154H93.4248V149.37H91.8448C91.7781 150.217 91.6948 150.94 91.5948 151.54C91.4948 152.133 91.3681 152.617 91.2148 152.99C91.0614 153.363 90.8781 153.637 90.6648 153.81C90.4514 153.983 90.2014 154.07 89.9148 154.07C89.8281 154.07 89.7414 154.063 89.6548 154.05C89.5748 154.043 89.5081 154.027 89.4548 154V153.34C89.4948 153.353 89.5381 153.363 89.5848 153.37C89.6314 153.377 89.6781 153.38 89.7248 153.38C89.8714 153.38 90.0048 153.32 90.1248 153.2C90.2448 153.08 90.3514 152.897 90.4448 152.65C90.5448 152.403 90.6348 152.093 90.7148 151.72C90.7948 151.34 90.8648 150.893 90.9248 150.38C90.9848 149.867 91.0381 149.287 91.0848 148.64H94.3148V154ZM100.676 151.31C100.676 151.757 100.616 152.153 100.496 152.5C100.383 152.84 100.216 153.13 99.996 153.37C99.7827 153.61 99.5193 153.793 99.206 153.92C98.8993 154.04 98.556 154.1 98.176 154.1C97.8227 154.1 97.496 154.04 97.196 153.92C96.896 153.793 96.636 153.61 96.416 153.37C96.196 153.13 96.0227 152.84 95.896 152.5C95.776 152.153 95.716 151.757 95.716 151.31C95.716 150.717 95.816 150.217 96.016 149.81C96.216 149.397 96.5027 149.083 96.876 148.87C97.2493 148.65 97.6927 148.54 98.206 148.54C98.6927 148.54 99.1193 148.65 99.486 148.87C99.8593 149.083 100.149 149.397 100.356 149.81C100.569 150.217 100.676 150.717 100.676 151.31ZM96.626 151.31C96.626 151.73 96.6793 152.097 96.786 152.41C96.8993 152.717 97.0727 152.953 97.306 153.12C97.5393 153.287 97.836 153.37 98.196 153.37C98.556 153.37 98.8527 153.287 99.086 153.12C99.3193 152.953 99.4893 152.717 99.596 152.41C99.7093 152.097 99.766 151.73 99.766 151.31C99.766 150.883 99.7093 150.52 99.596 150.22C99.4827 149.92 99.3093 149.69 99.076 149.53C98.8493 149.363 98.5527 149.28 98.186 149.28C97.6393 149.28 97.2427 149.46 96.996 149.82C96.7493 150.18 96.626 150.677 96.626 151.31ZM105.341 148.64V149.38H102.951V154H102.071V148.64H105.341ZM110.959 151.31C110.959 151.757 110.899 152.153 110.779 152.5C110.666 152.84 110.499 153.13 110.279 153.37C110.066 153.61 109.803 153.793 109.489 153.92C109.183 154.04 108.839 154.1 108.459 154.1C108.106 154.1 107.779 154.04 107.479 153.92C107.179 153.793 106.919 153.61 106.699 153.37C106.479 153.13 106.306 152.84 106.179 152.5C106.059 152.153 105.999 151.757 105.999 151.31C105.999 150.717 106.099 150.217 106.299 149.81C106.499 149.397 106.786 149.083 107.159 148.87C107.533 148.65 107.976 148.54 108.489 148.54C108.976 148.54 109.403 148.65 109.769 148.87C110.143 149.083 110.433 149.397 110.639 149.81C110.853 150.217 110.959 150.717 110.959 151.31ZM106.909 151.31C106.909 151.73 106.963 152.097 107.069 152.41C107.183 152.717 107.356 152.953 107.589 153.12C107.823 153.287 108.119 153.37 108.479 153.37C108.839 153.37 109.136 153.287 109.369 153.12C109.603 152.953 109.773 152.717 109.879 152.41C109.993 152.097 110.049 151.73 110.049 151.31C110.049 150.883 109.993 150.52 109.879 150.22C109.766 149.92 109.593 149.69 109.359 149.53C109.133 149.363 108.836 149.28 108.469 149.28C107.923 149.28 107.526 149.46 107.279 149.82C107.033 150.18 106.909 150.677 106.909 151.31ZM115.956 149.38H114.206V154H113.336V149.38H111.606V148.64H115.956V149.38ZM117.842 151.91C117.842 151.97 117.839 152.057 117.832 152.17C117.832 152.277 117.829 152.393 117.822 152.52C117.815 152.64 117.809 152.757 117.802 152.87C117.795 152.977 117.789 153.063 117.782 153.13L120.652 148.64H121.732V154H120.912V150.84C120.912 150.733 120.912 150.593 120.912 150.42C120.919 150.247 120.925 150.077 120.932 149.91C120.939 149.737 120.945 149.607 120.952 149.52L118.102 154H117.012V148.64H117.842V151.91ZM127.968 148.64V154H127.088V149.39H124.318V154H123.438V148.64H127.968ZM130.248 154H129.328V153.09H130.248V154ZM132.172 154H131.252V153.09H132.172V154ZM134.096 154H133.176V153.09H134.096V154ZM136.02 154H135.1V153.09H136.02V154ZM137.943 154H137.023V153.09H137.943V154Z" fill="#24AFB5"/>
  <path d="M37.1968 205.114C36.7423 205.114 36.341 204.999 35.993 204.769C35.645 204.537 35.3727 204.21 35.1762 203.789C34.9797 203.365 34.8815 202.865 34.8815 202.287C34.8815 201.714 34.9797 201.217 35.1762 200.795C35.3727 200.374 35.6462 200.049 35.9965 199.819C36.3469 199.589 36.7517 199.474 37.211 199.474C37.5661 199.474 37.8467 199.534 38.0526 199.652C38.261 199.768 38.4196 199.901 38.5285 200.05C38.6398 200.196 38.7262 200.317 38.7877 200.412H38.8588V197.727H39.6968V205H38.8872V204.162H38.7877C38.7262 204.261 38.6386 204.387 38.5249 204.538C38.4113 204.687 38.2491 204.821 38.0384 204.94C37.8277 205.056 37.5472 205.114 37.1968 205.114ZM37.3105 204.361C37.6466 204.361 37.9307 204.273 38.1627 204.098C38.3947 203.92 38.5711 203.675 38.6919 203.363C38.8126 203.048 38.873 202.685 38.873 202.273C38.873 201.866 38.8138 201.509 38.6954 201.204C38.577 200.896 38.4018 200.657 38.1698 200.487C37.9378 200.314 37.6514 200.227 37.3105 200.227C36.9553 200.227 36.6594 200.318 36.4227 200.501C36.1883 200.681 36.0119 200.926 35.8936 201.236C35.7776 201.544 35.7195 201.889 35.7195 202.273C35.7195 202.661 35.7787 203.014 35.8971 203.331C36.0178 203.646 36.1954 203.897 36.4298 204.084C36.6665 204.268 36.9601 204.361 37.3105 204.361ZM43.635 205.114C43.1095 205.114 42.6561 204.998 42.2749 204.766C41.8962 204.531 41.6038 204.205 41.3978 203.786C41.1942 203.364 41.0924 202.874 41.0924 202.315C41.0924 201.757 41.1942 201.264 41.3978 200.838C41.6038 200.41 41.8902 200.076 42.2572 199.837C42.6265 199.595 43.0574 199.474 43.5498 199.474C43.8339 199.474 44.1144 199.522 44.3914 199.616C44.6684 199.711 44.9205 199.865 45.1478 200.078C45.3751 200.289 45.5562 200.568 45.6911 200.916C45.8261 201.264 45.8936 201.693 45.8936 202.202V202.557H41.689V201.832H45.0413C45.0413 201.525 44.9797 201.25 44.8566 201.009C44.7359 200.767 44.5631 200.576 44.3382 200.437C44.1156 200.297 43.8528 200.227 43.5498 200.227C43.216 200.227 42.9272 200.31 42.6833 200.476C42.4419 200.639 42.256 200.852 42.1258 201.115C41.9956 201.378 41.9305 201.66 41.9305 201.96V202.443C41.9305 202.855 42.0015 203.204 42.1436 203.491C42.288 203.775 42.488 203.991 42.7437 204.141C42.9994 204.287 43.2965 204.361 43.635 204.361C43.8552 204.361 44.0541 204.33 44.2316 204.268C44.4115 204.205 44.5666 204.11 44.6968 203.984C44.827 203.857 44.9276 203.698 44.9987 203.509L45.8083 203.736C45.7231 204.01 45.5799 204.252 45.3786 204.46C45.1774 204.666 44.9288 204.827 44.6329 204.943C44.337 205.057 44.0044 205.114 43.635 205.114ZM51.4626 199.545L49.4456 205H48.5933L46.5763 199.545H47.4854L48.991 203.892H49.0479L50.5535 199.545H51.4626ZM54.6604 205.114C54.1349 205.114 53.6815 204.998 53.3003 204.766C52.9215 204.531 52.6292 204.205 52.4232 203.786C52.2196 203.364 52.1178 202.874 52.1178 202.315C52.1178 201.757 52.2196 201.264 52.4232 200.838C52.6292 200.41 52.9156 200.076 53.2826 199.837C53.6519 199.595 54.0828 199.474 54.5752 199.474C54.8593 199.474 55.1398 199.522 55.4168 199.616C55.6938 199.711 55.9459 199.865 56.1732 200.078C56.4005 200.289 56.5816 200.568 56.7165 200.916C56.8515 201.264 56.9189 201.693 56.9189 202.202V202.557H52.7144V201.832H56.0667C56.0667 201.525 56.0051 201.25 55.882 201.009C55.7613 200.767 55.5885 200.576 55.3635 200.437C55.141 200.297 54.8782 200.227 54.5752 200.227C54.2414 200.227 53.9526 200.31 53.7087 200.476C53.4672 200.639 53.2814 200.852 53.1512 201.115C53.021 201.378 52.9559 201.66 52.9559 201.96V202.443C52.9559 202.855 53.0269 203.204 53.1689 203.491C53.3134 203.775 53.5134 203.991 53.7691 204.141C54.0248 204.287 54.3219 204.361 54.6604 204.361C54.8806 204.361 55.0795 204.33 55.257 204.268C55.4369 204.205 55.592 204.11 55.7222 203.984C55.8524 203.857 55.953 203.698 56.0241 203.509L56.8337 203.736C56.7485 204.01 56.6053 204.252 56.404 204.46C56.2028 204.666 55.9542 204.827 55.6583 204.943C55.3624 205.057 55.0297 205.114 54.6604 205.114ZM59.0319 197.727V205H58.1938V197.727H59.0319ZM62.7828 205.114C62.2903 205.114 61.8583 204.996 61.4866 204.762C61.1173 204.528 60.8285 204.2 60.6201 203.778C60.4142 203.357 60.3112 202.865 60.3112 202.301C60.3112 201.733 60.4142 201.237 60.6201 200.813C60.8285 200.389 61.1173 200.06 61.4866 199.826C61.8583 199.592 62.2903 199.474 62.7828 199.474C63.2752 199.474 63.7061 199.592 64.0754 199.826C64.4471 200.06 64.7359 200.389 64.9419 200.813C65.1502 201.237 65.2544 201.733 65.2544 202.301C65.2544 202.865 65.1502 203.357 64.9419 203.778C64.7359 204.2 64.4471 204.528 64.0754 204.762C63.7061 204.996 63.2752 205.114 62.7828 205.114ZM62.7828 204.361C63.1568 204.361 63.4646 204.265 63.7061 204.073C63.9475 203.881 64.1263 203.629 64.2423 203.317C64.3583 203.004 64.4163 202.666 64.4163 202.301C64.4163 201.937 64.3583 201.597 64.2423 201.282C64.1263 200.967 63.9475 200.713 63.7061 200.518C63.4646 200.324 63.1568 200.227 62.7828 200.227C62.4087 200.227 62.1009 200.324 61.8595 200.518C61.618 200.713 61.4392 200.967 61.3232 201.282C61.2072 201.597 61.1492 201.937 61.1492 202.301C61.1492 202.666 61.2072 203.004 61.3232 203.317C61.4392 203.629 61.618 203.881 61.8595 204.073C62.1009 204.265 62.4087 204.361 62.7828 204.361ZM66.5336 207.045V199.545H67.3433V200.412H67.4427C67.5043 200.317 67.5895 200.196 67.6984 200.05C67.8097 199.901 67.9683 199.768 68.1743 199.652C68.3826 199.534 68.6643 199.474 69.0194 199.474C69.4787 199.474 69.8836 199.589 70.2339 199.819C70.5843 200.049 70.8577 200.374 71.0542 200.795C71.2507 201.217 71.349 201.714 71.349 202.287C71.349 202.865 71.2507 203.365 71.0542 203.789C70.8577 204.21 70.5855 204.537 70.2375 204.769C69.8895 204.999 69.4882 205.114 69.0336 205.114C68.6833 205.114 68.4027 205.056 68.192 204.94C67.9813 204.821 67.8192 204.687 67.7055 204.538C67.5919 204.387 67.5043 204.261 67.4427 204.162H67.3717V207.045H66.5336ZM67.3575 202.273C67.3575 202.685 67.4179 203.048 67.5386 203.363C67.6594 203.675 67.8357 203.92 68.0677 204.098C68.2997 204.273 68.5838 204.361 68.92 204.361C69.2704 204.361 69.5628 204.268 69.7971 204.084C70.0339 203.897 70.2114 203.646 70.3298 203.331C70.4506 203.014 70.5109 202.661 70.5109 202.273C70.5109 201.889 70.4517 201.544 70.3334 201.236C70.2174 200.926 70.041 200.681 69.8042 200.501C69.5699 200.318 69.2751 200.227 68.92 200.227C68.5791 200.227 68.2926 200.314 68.0606 200.487C67.8286 200.657 67.6534 200.896 67.5351 201.204C67.4167 201.509 67.3575 201.866 67.3575 202.273ZM75.5535 205V197.727H76.3916V200.412H76.4626C76.5242 200.317 76.6094 200.196 76.7183 200.05C76.8296 199.901 76.9882 199.768 77.1942 199.652C77.4025 199.534 77.6842 199.474 78.0393 199.474C78.4986 199.474 78.9034 199.589 79.2538 199.819C79.6042 200.049 79.8776 200.374 80.0741 200.795C80.2706 201.217 80.3689 201.714 80.3689 202.287C80.3689 202.865 80.2706 203.365 80.0741 203.789C79.8776 204.21 79.6054 204.537 79.2574 204.769C78.9094 204.999 78.5081 205.114 78.0535 205.114C77.7032 205.114 77.4226 205.056 77.2119 204.94C77.0012 204.821 76.839 204.687 76.7254 204.538C76.6118 204.387 76.5242 204.261 76.4626 204.162H76.3632V205H75.5535ZM76.3774 202.273C76.3774 202.685 76.4378 203.048 76.5585 203.363C76.6792 203.675 76.8556 203.92 77.0876 204.098C77.3196 204.273 77.6037 204.361 77.9399 204.361C78.2903 204.361 78.5827 204.268 78.817 204.084C79.0538 203.897 79.2313 203.646 79.3497 203.331C79.4704 203.014 79.5308 202.661 79.5308 202.273C79.5308 201.889 79.4716 201.544 79.3532 201.236C79.2372 200.926 79.0609 200.681 78.8241 200.501C78.5898 200.318 78.295 200.227 77.9399 200.227C77.599 200.227 77.3125 200.314 77.0805 200.487C76.8485 200.657 76.6733 200.896 76.555 201.204C76.4366 201.509 76.3774 201.866 76.3774 202.273ZM81.9953 207.045C81.8532 207.045 81.7266 207.034 81.6153 207.01C81.5041 206.989 81.4271 206.967 81.3845 206.946L81.5976 206.207C81.8012 206.259 81.9811 206.278 82.1373 206.264C82.2936 206.25 82.4321 206.18 82.5528 206.055C82.6759 205.932 82.7884 205.732 82.8902 205.455L83.0464 205.028L81.0294 199.545H81.9385L83.4442 203.892H83.501L85.0067 199.545H85.9157L83.6004 205.795C83.4962 206.077 83.3672 206.31 83.2133 206.495C83.0595 206.682 82.8807 206.821 82.6771 206.911C82.4759 207 82.2486 207.045 81.9953 207.045ZM89.9481 205V197.727H94.3089V198.509H90.8287V200.966H93.9822V201.747H90.8287V205H89.9481ZM96.5416 197.727V205H95.7036V197.727H96.5416ZM98.6164 207.045C98.4743 207.045 98.3477 207.034 98.2364 207.01C98.1251 206.989 98.0482 206.967 98.0056 206.946L98.2187 206.207C98.4223 206.259 98.6022 206.278 98.7584 206.264C98.9147 206.25 99.0532 206.18 99.1739 206.055C99.297 205.932 99.4095 205.732 99.5113 205.455L99.6675 205.028L97.6505 199.545H98.5596L100.065 203.892H100.122L101.628 199.545H102.537L100.222 205.795C100.117 206.077 99.9883 206.31 99.8344 206.495C99.6805 206.682 99.5018 206.821 99.2982 206.911C99.097 207 98.8697 207.045 98.6164 207.045ZM103.757 205V197.727H104.595V200.412H104.666C104.727 200.317 104.813 200.196 104.921 200.05C105.033 199.901 105.191 199.768 105.397 199.652C105.606 199.534 105.887 199.474 106.242 199.474C106.702 199.474 107.107 199.589 107.457 199.819C107.807 200.049 108.081 200.374 108.277 200.795C108.474 201.217 108.572 201.714 108.572 202.287C108.572 202.865 108.474 203.365 108.277 203.789C108.081 204.21 107.809 204.537 107.46 204.769C107.112 204.999 106.711 205.114 106.257 205.114C105.906 205.114 105.626 205.056 105.415 204.94C105.204 204.821 105.042 204.687 104.929 204.538C104.815 204.387 104.727 204.261 104.666 204.162H104.566V205H103.757ZM104.581 202.273C104.581 202.685 104.641 203.048 104.762 203.363C104.882 203.675 105.059 203.92 105.291 204.098C105.523 204.273 105.807 204.361 106.143 204.361C106.493 204.361 106.786 204.268 107.02 204.084C107.257 203.897 107.434 203.646 107.553 203.331C107.674 203.014 107.734 202.661 107.734 202.273C107.734 201.889 107.675 201.544 107.556 201.236C107.44 200.926 107.264 200.681 107.027 200.501C106.793 200.318 106.498 200.227 106.143 200.227C105.802 200.227 105.516 200.314 105.284 200.487C105.052 200.657 104.876 200.896 104.758 201.204C104.64 201.509 104.581 201.866 104.581 202.273ZM112.07 205.114C111.577 205.114 111.145 204.996 110.774 204.762C110.404 204.528 110.116 204.2 109.907 203.778C109.701 203.357 109.598 202.865 109.598 202.301C109.598 201.733 109.701 201.237 109.907 200.813C110.116 200.389 110.404 200.06 110.774 199.826C111.145 199.592 111.577 199.474 112.07 199.474C112.562 199.474 112.993 199.592 113.362 199.826C113.734 200.06 114.023 200.389 114.229 200.813C114.437 201.237 114.541 201.733 114.541 202.301C114.541 202.865 114.437 203.357 114.229 203.778C114.023 204.2 113.734 204.528 113.362 204.762C112.993 204.996 112.562 205.114 112.07 205.114ZM112.07 204.361C112.444 204.361 112.752 204.265 112.993 204.073C113.235 203.881 113.413 203.629 113.529 203.317C113.645 203.004 113.703 202.666 113.703 202.301C113.703 201.937 113.645 201.597 113.529 201.282C113.413 200.967 113.235 200.713 112.993 200.518C112.752 200.324 112.444 200.227 112.07 200.227C111.696 200.227 111.388 200.324 111.147 200.518C110.905 200.713 110.726 200.967 110.61 201.282C110.494 201.597 110.436 201.937 110.436 202.301C110.436 202.666 110.494 203.004 110.61 203.317C110.726 203.629 110.905 203.881 111.147 204.073C111.388 204.265 111.696 204.361 112.07 204.361ZM116.221 199.545L117.528 201.776L118.835 199.545H119.801L118.039 202.273L119.801 205H118.835L117.528 202.884L116.221 205H115.255L116.988 202.273L115.255 199.545H116.221ZM121.622 199.545L122.928 201.776L124.235 199.545H125.201L123.44 202.273L125.201 205H124.235L122.928 202.884L121.622 205H120.656L122.389 202.273L120.656 199.545H121.622ZM73.8778 213.932C73.8778 213.037 73.9938 212.214 74.2259 211.464C74.4602 210.711 74.794 210.018 75.2273 209.386H75.9659C75.7955 209.621 75.6357 209.91 75.4865 210.253C75.3397 210.594 75.2107 210.969 75.0994 211.379C74.9882 211.786 74.9006 212.207 74.8366 212.643C74.7751 213.078 74.7443 213.508 74.7443 213.932C74.7443 214.495 74.7988 215.067 74.9077 215.647C75.0166 216.227 75.1634 216.766 75.348 217.263C75.5327 217.76 75.7386 218.165 75.9659 218.477H75.2273C74.794 217.845 74.4602 217.154 74.2259 216.403C73.9938 215.651 73.8778 214.827 73.8778 213.932ZM79.7736 209.386L77.4299 218.094H76.6628L79.0066 209.386H79.7736ZM83.3381 209.386L80.9943 218.094H80.2273L82.571 209.386H83.3381ZM86.1213 213.932C86.1213 214.827 86.0041 215.651 85.7697 216.403C85.5377 217.154 85.2051 217.845 84.7718 218.477H84.0332C84.2037 218.243 84.3623 217.954 84.5091 217.611C84.6582 217.27 84.7884 216.896 84.8997 216.489C85.0109 216.079 85.0974 215.656 85.1589 215.221C85.2228 214.783 85.2548 214.353 85.2548 213.932C85.2548 213.368 85.2003 212.797 85.0914 212.217C84.9825 211.637 84.8358 211.098 84.6511 210.601C84.4664 210.104 84.2605 209.699 84.0332 209.386H84.7718C85.2051 210.018 85.5377 210.711 85.7697 211.464C86.0041 212.214 86.1213 213.037 86.1213 213.932Z" fill="#24AFB5"/>
  <defs>
    <linearGradient id="paint0_linear_501_29" x1="62.0487" y1="117.559" x2="98.3305" y2="43.8018" gradientUnits="userSpaceOnUse">
      <stop stop-color="#25B6BC"/>
      <stop offset="0.29" stop-color="#1E848F"/>
      <stop offset="0.62" stop-color="#175263"/>
      <stop offset="0.86" stop-color="#133347"/>
      <stop offset="1" stop-color="#11273D"/>
    </linearGradient>
  </defs>
</svg>




