<svg width="166" height="259" viewBox="0 0 166 259" fill="none" xmlns="http://www.w3.org/2000/svg">
<path d="M77.1136 0L98.2139 18.2178L29.0412 103.814L20.5376 96.4727C19.2186 95.3314 18.1244 93.7608 17.2551 91.7609C16.3836 89.7469 15.7483 87.6387 15.3619 85.4785C14.9708 83.4122 14.8962 81.2983 15.1405 79.2095C15.3876 77.2167 15.9938 75.6248 16.9591 74.4337L77.1136 0ZM70.3885 115.392C68.9551 117.18 67.2295 118.712 65.2848 119.925C63.3204 121.131 61.0939 121.845 58.7944 122.007C56.3946 122.199 53.8071 121.782 51.0321 120.754C48.2572 119.727 45.3124 117.869 42.1979 115.181L37.5261 111.147L95.1234 39.8727C96.5729 38.0711 98.3111 36.5222 100.267 35.289C102.238 34.055 104.481 33.3225 106.8 33.1557C109.2 32.9637 111.764 33.3602 114.493 34.345C117.222 35.3298 120.143 37.168 123.255 39.8594L145.34 58.9305C146.662 60.0718 147.771 61.6246 148.665 63.5889C149.56 65.553 150.188 67.6283 150.531 69.7593C150.876 71.8109 150.926 73.9012 150.681 75.967C150.434 77.9562 149.8 79.5828 148.779 80.8468L88.6303 155.278L67.394 136.94L119.978 71.8765L111.483 64.5409L70.3885 115.392Z" fill="url(#paint0_linear_501_29)"/>
<path d="M36.8531 204.551C36.3985 204.551 35.9972 204.436 35.6492 204.207C35.3012 203.975 35.029 203.648 34.8325 203.227C34.636 202.803 34.5377 202.302 34.5377 201.724C34.5377 201.152 34.636 200.654 34.8325 200.233C35.029 199.812 35.3024 199.486 35.6528 199.256C36.0032 199.027 36.408 198.912 36.8673 198.912C37.2224 198.912 37.5029 198.971 37.7089 199.089C37.9172 199.205 38.0758 199.338 38.1847 199.487C38.296 199.634 38.3824 199.755 38.444 199.849H38.515V197.165H39.3531V204.438H38.5434V203.599H38.444C38.3824 203.699 38.2948 203.824 38.1812 203.976C38.0676 204.125 37.9054 204.259 37.6947 204.377C37.484 204.493 37.2035 204.551 36.8531 204.551ZM36.9667 203.798C37.3029 203.798 37.587 203.711 37.819 203.536C38.051 203.358 38.2274 203.113 38.3481 202.8C38.4688 202.486 38.5292 202.122 38.5292 201.71C38.5292 201.303 38.47 200.947 38.3517 200.641C38.2333 200.334 38.0581 200.094 37.8261 199.924C37.5941 199.751 37.3076 199.665 36.9667 199.665C36.6116 199.665 36.3157 199.756 36.0789 199.938C35.8445 200.118 35.6682 200.363 35.5498 200.673C35.4338 200.981 35.3758 201.327 35.3758 201.71C35.3758 202.098 35.435 202.451 35.5534 202.768C35.6741 203.083 35.8517 203.334 36.086 203.521C36.3228 203.706 36.6163 203.798 36.9667 203.798ZM43.2913 204.551C42.7657 204.551 42.3124 204.435 41.9312 204.203C41.5524 203.969 41.26 203.642 41.0541 203.223C40.8505 202.802 40.7487 202.312 40.7487 201.753C40.7487 201.194 40.8505 200.702 41.0541 200.276C41.26 199.847 41.5465 199.513 41.9134 199.274C42.2828 199.033 42.7136 198.912 43.2061 198.912C43.4901 198.912 43.7707 198.959 44.0477 199.054C44.3247 199.149 44.5768 199.303 44.8041 199.516C45.0313 199.726 45.2124 200.006 45.3474 200.354C45.4823 200.702 45.5498 201.13 45.5498 201.639V201.994H41.3453V201.27H44.6975C44.6975 200.962 44.636 200.687 44.5129 200.446C44.3921 200.205 44.2193 200.014 43.9944 199.874C43.7719 199.735 43.5091 199.665 43.2061 199.665C42.8722 199.665 42.5834 199.748 42.3396 199.913C42.0981 200.077 41.9123 200.29 41.782 200.553C41.6518 200.815 41.5867 201.097 41.5867 201.398V201.881C41.5867 202.293 41.6578 202.642 41.7998 202.928C41.9442 203.212 42.1443 203.429 42.3999 203.578C42.6556 203.725 42.9527 203.798 43.2913 203.798C43.5115 203.798 43.7103 203.768 43.8879 203.706C44.0678 203.642 44.2229 203.547 44.3531 203.422C44.4833 203.294 44.5839 203.135 44.6549 202.946L45.4646 203.173C45.3794 203.448 45.2361 203.689 45.0349 203.898C44.8337 204.104 44.5851 204.265 44.2892 204.381C43.9932 204.494 43.6606 204.551 43.2913 204.551ZM51.1189 198.983L49.1018 204.438H48.2496L46.2325 198.983H47.1416L48.6473 203.33H48.7041L50.2098 198.983H51.1189ZM54.3167 204.551C53.7911 204.551 53.3377 204.435 52.9566 204.203C52.5778 203.969 52.2854 203.642 52.0795 203.223C51.8759 202.802 51.7741 202.312 51.7741 201.753C51.7741 201.194 51.8759 200.702 52.0795 200.276C52.2854 199.847 52.5719 199.513 52.9388 199.274C53.3081 199.033 53.739 198.912 54.2314 198.912C54.5155 198.912 54.7961 198.959 55.0731 199.054C55.3501 199.149 55.6022 199.303 55.8295 199.516C56.0567 199.726 56.2378 200.006 56.3728 200.354C56.5077 200.702 56.5752 201.13 56.5752 201.639V201.994H52.3706V201.27H55.7229C55.7229 200.962 55.6614 200.687 55.5383 200.446C55.4175 200.205 55.2447 200.014 55.0198 199.874C54.7973 199.735 54.5345 199.665 54.2314 199.665C53.8976 199.665 53.6088 199.748 53.365 199.913C53.1235 200.077 52.9376 200.29 52.8074 200.553C52.6772 200.815 52.6121 201.097 52.6121 201.398V201.881C52.6121 202.293 52.6831 202.642 52.8252 202.928C52.9696 203.212 53.1697 203.429 53.4253 203.578C53.681 203.725 53.9781 203.798 54.3167 203.798C54.5368 203.798 54.7357 203.768 54.9133 203.706C55.0932 203.642 55.2483 203.547 55.3785 203.422C55.5087 203.294 55.6093 203.135 55.6803 202.946L56.49 203.173C56.4047 203.448 56.2615 203.689 56.0603 203.898C55.859 204.104 55.6105 204.265 55.3145 204.381C55.0186 204.494 54.686 204.551 54.3167 204.551ZM58.6881 197.165V204.438H57.8501V197.165H58.6881ZM62.439 204.551C61.9466 204.551 61.5145 204.434 61.1428 204.2C60.7735 203.965 60.4847 203.637 60.2764 203.216C60.0704 202.795 59.9674 202.302 59.9674 201.739C59.9674 201.17 60.0704 200.674 60.2764 200.251C60.4847 199.827 60.7735 199.498 61.1428 199.263C61.5145 199.029 61.9466 198.912 62.439 198.912C62.9314 198.912 63.3623 199.029 63.7316 199.263C64.1033 199.498 64.3921 199.827 64.5981 200.251C64.8064 200.674 64.9106 201.17 64.9106 201.739C64.9106 202.302 64.8064 202.795 64.5981 203.216C64.3921 203.637 64.1033 203.965 63.7316 204.2C63.3623 204.434 62.9314 204.551 62.439 204.551ZM62.439 203.798C62.8131 203.798 63.1208 203.702 63.3623 203.511C63.6038 203.319 63.7825 203.067 63.8985 202.754C64.0145 202.442 64.0725 202.103 64.0725 201.739C64.0725 201.374 64.0145 201.034 63.8985 200.719C63.7825 200.405 63.6038 200.15 63.3623 199.956C63.1208 199.762 62.8131 199.665 62.439 199.665C62.065 199.665 61.7572 199.762 61.5157 199.956C61.2742 200.15 61.0955 200.405 60.9795 200.719C60.8635 201.034 60.8055 201.374 60.8055 201.739C60.8055 202.103 60.8635 202.442 60.9795 202.754C61.0955 203.067 61.2742 203.319 61.5157 203.511C61.7572 203.702 62.065 203.798 62.439 203.798ZM66.1899 206.483V198.983H66.9996V199.849H67.099C67.1605 199.755 67.2458 199.634 67.3547 199.487C67.4659 199.338 67.6246 199.205 67.8305 199.089C68.0389 198.971 68.3206 198.912 68.6757 198.912C69.135 198.912 69.5398 199.027 69.8902 199.256C70.2406 199.486 70.514 199.812 70.7105 200.233C70.907 200.654 71.0052 201.152 71.0052 201.724C71.0052 202.302 70.907 202.803 70.7105 203.227C70.514 203.648 70.2417 203.975 69.8937 204.207C69.5457 204.436 69.1444 204.551 68.6899 204.551C68.3395 204.551 68.059 204.493 67.8483 204.377C67.6376 204.259 67.4754 204.125 67.3618 203.976C67.2481 203.824 67.1605 203.699 67.099 203.599H67.028V206.483H66.1899ZM67.0138 201.71C67.0138 202.122 67.0741 202.486 67.1949 202.8C67.3156 203.113 67.492 203.358 67.724 203.536C67.956 203.711 68.2401 203.798 68.5763 203.798C68.9266 203.798 69.219 203.706 69.4534 203.521C69.6901 203.334 69.8677 203.083 69.9861 202.768C70.1068 202.451 70.1672 202.098 70.1672 201.71C70.1672 201.327 70.108 200.981 69.9896 200.673C69.8736 200.363 69.6972 200.118 69.4605 199.938C69.2261 199.756 68.9314 199.665 68.5763 199.665C68.2354 199.665 67.9489 199.751 67.7169 199.924C67.4849 200.094 67.3097 200.334 67.1913 200.641C67.0729 200.947 67.0138 201.303 67.0138 201.71ZM75.2098 204.438V197.165H76.0479V199.849H76.1189C76.1804 199.755 76.2657 199.634 76.3746 199.487C76.4858 199.338 76.6444 199.205 76.8504 199.089C77.0587 198.971 77.3405 198.912 77.6956 198.912C78.1549 198.912 78.5597 199.027 78.9101 199.256C79.2604 199.486 79.5339 199.812 79.7304 200.233C79.9269 200.654 80.0251 201.152 80.0251 201.724C80.0251 202.302 79.9269 202.803 79.7304 203.227C79.5339 203.648 79.2616 203.975 78.9136 204.207C78.5656 204.436 78.1643 204.551 77.7098 204.551C77.3594 204.551 77.0789 204.493 76.8682 204.377C76.6575 204.259 76.4953 204.125 76.3817 203.976C76.268 203.824 76.1804 203.699 76.1189 203.599H76.0194V204.438H75.2098ZM76.0336 201.71C76.0336 202.122 76.094 202.486 76.2148 202.8C76.3355 203.113 76.5119 203.358 76.7439 203.536C76.9759 203.711 77.26 203.798 77.5961 203.798C77.9465 203.798 78.2389 203.706 78.4733 203.521C78.71 203.334 78.8876 203.083 79.0059 202.768C79.1267 202.451 79.1871 202.098 79.1871 201.71C79.1871 201.327 79.1279 200.981 79.0095 200.673C78.8935 200.363 78.7171 200.118 78.4804 199.938C78.246 199.756 77.9513 199.665 77.5961 199.665C77.2552 199.665 76.9688 199.751 76.7368 199.924C76.5048 200.094 76.3296 200.334 76.2112 200.641C76.0928 200.947 76.0336 201.303 76.0336 201.71ZM81.6515 206.483C81.5095 206.483 81.3828 206.471 81.2716 206.447C81.1603 206.426 81.0834 206.405 81.0407 206.384L81.2538 205.645C81.4574 205.697 81.6373 205.716 81.7936 205.702C81.9498 205.688 82.0883 205.618 82.2091 205.492C82.3322 205.369 82.4446 205.169 82.5464 204.892L82.7027 204.466L80.6856 198.983H81.5947L83.1004 203.33H83.1572L84.6629 198.983H85.572L83.2567 205.233C83.1525 205.515 83.0235 205.748 82.8696 205.933C82.7157 206.12 82.537 206.258 82.3334 206.348C82.1321 206.438 81.9049 206.483 81.6515 206.483ZM89.6043 204.438V197.165H93.9651V197.946H90.485V200.403H93.6384V201.185H90.485V204.438H89.6043ZM96.1979 197.165V204.438H95.3598V197.165H96.1979ZM98.2726 206.483C98.1306 206.483 98.0039 206.471 97.8927 206.447C97.7814 206.426 97.7045 206.405 97.6618 206.384L97.8749 205.645C98.0785 205.697 98.2584 205.716 98.4147 205.702C98.5709 205.688 98.7094 205.618 98.8302 205.492C98.9533 205.369 99.0657 205.169 99.1675 204.892L99.3238 204.466L97.3067 198.983H98.2158L99.7215 203.33H99.7783L101.284 198.983H102.193L99.8778 205.233C99.7736 205.515 99.6446 205.748 99.4907 205.933C99.3368 206.12 99.1581 206.258 98.9545 206.348C98.7532 206.438 98.526 206.483 98.2726 206.483ZM103.413 204.438V197.165H104.251V199.849H104.322C104.384 199.755 104.469 199.634 104.578 199.487C104.689 199.338 104.848 199.205 105.054 199.089C105.262 198.971 105.544 198.912 105.899 198.912C106.358 198.912 106.763 199.027 107.113 199.256C107.464 199.486 107.737 199.812 107.934 200.233C108.13 200.654 108.228 201.152 108.228 201.724C108.228 202.302 108.13 202.803 107.934 203.227C107.737 203.648 107.465 203.975 107.117 204.207C106.769 204.436 106.367 204.551 105.913 204.551C105.563 204.551 105.282 204.493 105.071 204.377C104.861 204.259 104.698 204.125 104.585 203.976C104.471 203.824 104.384 203.699 104.322 203.599H104.223V204.438H103.413ZM104.237 201.71C104.237 202.122 104.297 202.486 104.418 202.8C104.539 203.113 104.715 203.358 104.947 203.536C105.179 203.711 105.463 203.798 105.799 203.798C106.15 203.798 106.442 203.706 106.676 203.521C106.913 203.334 107.091 203.083 107.209 202.768C107.33 202.451 107.39 202.098 107.39 201.71C107.39 201.327 107.331 200.981 107.213 200.673C107.097 200.363 106.92 200.118 106.684 199.938C106.449 199.756 106.154 199.665 105.799 199.665C105.458 199.665 105.172 199.751 104.94 199.924C104.708 200.094 104.533 200.334 104.414 200.641C104.296 200.947 104.237 201.303 104.237 201.71ZM111.726 204.551C111.234 204.551 110.802 204.434 110.43 204.2C110.061 203.965 109.772 203.637 109.563 203.216C109.358 202.795 109.255 202.302 109.255 201.739C109.255 201.17 109.358 200.674 109.563 200.251C109.772 199.827 110.061 199.498 110.43 199.263C110.802 199.029 111.234 198.912 111.726 198.912C112.219 198.912 112.649 199.029 113.019 199.263C113.39 199.498 113.679 199.827 113.885 200.251C114.094 200.674 114.198 201.17 114.198 201.739C114.198 202.302 114.094 202.795 113.885 203.216C113.679 203.637 113.39 203.965 113.019 204.2C112.649 204.434 112.219 204.551 111.726 204.551ZM111.726 203.798C112.1 203.798 112.408 203.702 112.649 203.511C112.891 203.319 113.07 203.067 113.186 202.754C113.302 202.442 113.36 202.103 113.36 201.739C113.36 201.374 113.302 201.034 113.186 200.719C113.07 200.405 112.891 200.15 112.649 199.956C112.408 199.762 112.1 199.665 111.726 199.665C111.352 199.665 111.044 199.762 110.803 199.956C110.561 200.15 110.383 200.405 110.267 200.719C110.151 201.034 110.093 201.374 110.093 201.739C110.093 202.103 110.151 202.442 110.267 202.754C110.383 203.067 110.561 203.319 110.803 203.511C111.044 203.702 111.352 203.798 111.726 203.798ZM115.877 198.983L117.184 201.213L118.491 198.983H119.457L117.696 201.71L119.457 204.438H118.491L117.184 202.321L115.877 204.438H114.911L116.644 201.71L114.911 198.983H115.877ZM121.278 198.983L122.585 201.213L123.891 198.983H124.857L123.096 201.71L124.857 204.438H123.891L122.585 202.321L121.278 204.438H120.312L122.045 201.71L120.312 198.983H121.278ZM73.5341 213.369C73.5341 212.474 73.6501 211.652 73.8821 210.901C74.1165 210.148 74.4503 209.456 74.8835 208.824H75.6222C75.4517 209.058 75.2919 209.347 75.1428 209.69C74.996 210.031 74.867 210.406 74.7557 210.816C74.6444 211.223 74.5568 211.645 74.4929 212.08C74.4313 212.516 74.4006 212.946 74.4006 213.369C74.4006 213.933 74.455 214.504 74.5639 215.085C74.6728 215.665 74.8196 216.203 75.0043 216.7C75.1889 217.197 75.3949 217.602 75.6222 217.915H74.8835C74.4503 217.283 74.1165 216.591 73.8821 215.841C73.6501 215.088 73.5341 214.264 73.5341 213.369ZM79.4299 208.824L77.0861 217.531H76.3191L78.6628 208.824H79.4299ZM82.9943 208.824L80.6506 217.531H79.8835L82.2273 208.824H82.9943ZM85.7775 213.369C85.7775 214.264 85.6603 215.088 85.426 215.841C85.194 216.591 84.8613 217.283 84.4281 217.915H83.6895C83.8599 217.68 84.0185 217.392 84.1653 217.048C84.3145 216.707 84.4447 216.333 84.5559 215.926C84.6672 215.517 84.7536 215.094 84.8152 214.658C84.8791 214.22 84.911 213.791 84.911 213.369C84.911 212.806 84.8566 212.234 84.7477 211.654C84.6388 211.074 84.492 210.536 84.3074 210.038C84.1227 209.541 83.9167 209.136 83.6895 208.824H84.4281C84.8613 209.456 85.194 210.148 85.426 210.901C85.6603 211.652 85.7775 212.474 85.7775 213.369Z" fill="#24AFB5"/>
<defs>
<linearGradient id="paint0_linear_501_29" x1="47.0468" y1="120.747" x2="118.796" y2="35.1999" gradientUnits="userSpaceOnUse">
<stop stop-color="#25B6BC"/>
<stop offset="0.29" stop-color="#1E848F"/>
<stop offset="0.62" stop-color="#175263"/>
<stop offset="0.86" stop-color="#133347"/>
<stop offset="1" stop-color="#11273D"/>
</linearGradient>
</defs>
</svg>
